ply
format ascii 1.0
element vertex 200
property float x
property float y
property float z
end_header
50.000000 48.500000 5.000000
53.000000 48.500000 5.000000
53.000000 51.500000 35.000000
50.000000 51.500000 35.000000
47.000000 51.500000 5.000000
47.000000 48.500000 35.000000
47.000000 45.500000 5.000000
50.000000 45.500000 35.000000
53.000000 45.500000 5.000000
56.000000 45.500000 5.000000
56.000000 48.500000 5.000000
56.000000 51.500000 35.000000
56.000000 54.500000 5.000000
53.000000 54.500000 35.000000
50.000000 54.500000 5.000000
47.000000 54.500000 5.000000
44.000000 54.500000 5.000000
44.000000 51.500000 35.000000
44.000000 48.500000 5.000000
44.000000 45.500000 35.000000
44.000000 42.500000 5.000000
47.000000 42.500000 5.000000
50.000000 42.500000 5.000000
53.000000 42.500000 35.000000
56.000000 42.500000 5.000000
59.000000 42.500000 5.000000
59.000000 45.500000 5.000000
59.000000 48.500000 5.000000
59.000000 51.500000 5.000000
59.000000 54.500000 35.000000
59.000000 57.500000 5.000000
56.000000 57.500000 35.000000
53.000000 57.500000 5.000000
50.000000 57.500000 5.000000
47.000000 57.500000 5.000000
44.000000 57.500000 5.000000
41.000000 57.500000 5.000000
41.000000 54.500000 35.000000
41.000000 51.500000 5.000000
41.000000 48.500000 5.000000
41.000000 45.500000 5.000000
41.000000 42.500000 35.000000
41.000000 39.500000 5.000000
44.000000 39.500000 35.000000
47.000000 39.500000 5.000000
50.000000 39.500000 5.000000
53.000000 39.500000 5.000000
56.000000 39.500000 35.000000
59.000000 39.500000 5.000000
62.000000 39.500000 5.000000
62.000000 42.500000 5.000000
62.000000 45.500000 5.000000
62.000000 48.500000 5.000000
62.000000 51.500000 35.000000
62.000000 54.500000 5.000000
62.000000 57.500000 5.000000
62.000000 60.500000 5.000000
59.000000 60.500000 5.000000
56.000000 60.500000 5.000000
53.000000 60.500000 35.000000
50.000000 60.500000 5.000000
47.000000 60.500000 35.000000
44.000000 60.500000 5.000000
41.000000 60.500000 5.000000
38.000000 60.500000 5.000000
38.000000 57.500000 5.000000
38.000000 54.500000 5.000000
38.000000 51.500000 35.000000
38.000000 48.500000 5.000000
38.000000 45.500000 5.000000
38.000000 42.500000 5.000000
38.000000 39.500000 35.000000
38.000000 36.500000 5.000000
41.000000 36.500000 35.000000
44.000000 36.500000 5.000000
47.000000 36.500000 5.000000
50.000000 36.500000 5.000000
53.000000 36.500000 5.000000
56.000000 36.500000 5.000000
59.000000 36.500000 35.000000
62.000000 36.500000 5.000000
65.000000 36.500000 5.000000
65.000000 39.500000 5.000000
65.000000 42.500000 35.000000
65.000000 45.500000 5.000000
65.000000 48.500000 5.000000
65.000000 51.500000 5.000000
65.000000 54.500000 5.000000
65.000000 57.500000 5.000000
65.000000 60.500000 35.000000
65.000000 63.500000 5.000000
62.000000 63.500000 5.000000
59.000000 63.500000 5.000000
56.000000 63.500000 5.000000
53.000000 63.500000 5.000000
50.000000 63.500000 5.000000
47.000000 63.500000 5.000000
44.000000 63.500000 35.000000
41.000000 63.500000 5.000000
38.000000 63.500000 5.000000
35.000000 63.500000 5.000000
35.000000 60.500000 35.000000
35.000000 57.500000 5.000000
35.000000 54.500000 35.000000
35.000000 51.500000 5.000000
35.000000 48.500000 5.000000
35.000000 45.500000 5.000000
35.000000 42.500000 35.000000
35.000000 39.500000 5.000000
35.000000 36.500000 35.000000
35.000000 33.500000 5.000000
38.000000 33.500000 5.000000
41.000000 33.500000 5.000000
44.000000 33.500000 35.000000
47.000000 33.500000 5.000000
50.000000 33.500000 5.000000
53.000000 33.500000 5.000000
56.000000 33.500000 5.000000
59.000000 33.500000 5.000000
62.000000 33.500000 5.000000
65.000000 33.500000 5.000000
68.000000 33.500000 5.000000
68.000000 36.500000 5.000000
68.000000 39.500000 5.000000
68.000000 42.500000 5.000000
68.000000 45.500000 5.000000
68.000000 48.500000 5.000000
68.000000 51.500000 35.000000
68.000000 54.500000 5.000000
68.000000 57.500000 5.000000
68.000000 60.500000 5.000000
68.000000 63.500000 35.000000
68.000000 66.500000 5.000000
65.000000 66.500000 5.000000
62.000000 66.500000 5.000000
59.000000 66.500000 5.000000
56.000000 66.500000 5.000000
53.000000 66.500000 35.000000
50.000000 66.500000 5.000000
47.000000 66.500000 35.000000
44.000000 66.500000 5.000000
41.000000 66.500000 5.000000
38.000000 66.500000 5.000000
35.000000 66.500000 5.000000
32.000000 66.500000 5.000000
32.000000 63.500000 5.000000
32.000000 60.500000 5.000000
32.000000 57.500000 5.000000
32.000000 54.500000 5.000000
32.000000 51.500000 35.000000
32.000000 48.500000 5.000000
32.000000 45.500000 35.000000
32.000000 42.500000 5.000000
32.000000 39.500000 5.000000
32.000000 36.500000 5.000000
32.000000 33.500000 5.000000
32.000000 30.500000 5.000000
35.000000 30.500000 35.000000
38.000000 30.500000 5.000000
41.000000 30.500000 5.000000
44.000000 30.500000 5.000000
47.000000 30.500000 5.000000
50.000000 30.500000 5.000000
53.000000 30.500000 35.000000
56.000000 30.500000 5.000000
59.000000 30.500000 5.000000
62.000000 30.500000 5.000000
65.000000 30.500000 35.000000
68.000000 30.500000 5.000000
71.000000 30.500000 5.000000
71.000000 33.500000 5.000000
71.000000 36.500000 5.000000
71.000000 39.500000 5.000000
71.000000 42.500000 35.000000
71.000000 45.500000 5.000000
71.000000 48.500000 5.000000
71.000000 51.500000 5.000000
71.000000 54.500000 5.000000
71.000000 57.500000 5.000000
71.000000 60.500000 35.000000
71.000000 63.500000 5.000000
71.000000 66.500000 35.000000
71.000000 69.500000 5.000000
68.000000 69.500000 5.000000
65.000000 69.500000 5.000000
62.000000 69.500000 5.000000
59.000000 69.500000 5.000000
56.000000 69.500000 5.000000
53.000000 69.500000 5.000000
50.000000 69.500000 5.000000
47.000000 69.500000 5.000000
44.000000 69.500000 35.000000
41.000000 69.500000 5.000000
38.000000 69.500000 35.000000
35.000000 69.500000 5.000000
32.000000 69.500000 5.000000
29.000000 69.500000 5.000000
29.000000 66.500000 35.000000
29.000000 63.500000 5.000000
29.000000 60.500000 35.000000
