ply
format ascii 1.0
element vertex 200
property float x
property float y
property float z
end_header
50.000000 46.785714 17.857143
56.428571 46.785714 17.857143
56.428571 53.214286 82.142857
50.000000 53.214286 82.142857
43.571429 53.214286 17.857143
43.571429 46.785714 82.142857
43.571429 40.357143 17.857143
50.000000 40.357143 82.142857
56.428571 40.357143 17.857143
62.857143 40.357143 17.857143
62.857143 46.785714 17.857143
62.857143 53.214286 82.142857
62.857143 59.642857 17.857143
56.428571 59.642857 82.142857
50.000000 59.642857 17.857143
43.571429 59.642857 17.857143
37.142857 59.642857 17.857143
37.142857 53.214286 82.142857
37.142857 46.785714 17.857143
37.142857 40.357143 82.142857
37.142857 33.928571 17.857143
43.571429 33.928571 17.857143
50.000000 33.928571 17.857143
56.428571 33.928571 82.142857
62.857143 33.928571 17.857143
69.285714 33.928571 17.857143
69.285714 40.357143 17.857143
69.285714 46.785714 17.857143
69.285714 53.214286 17.857143
69.285714 59.642857 82.142857
69.285714 66.071429 17.857143
62.857143 66.071429 82.142857
56.428571 66.071429 17.857143
50.000000 66.071429 17.857143
43.571429 66.071429 17.857143
37.142857 66.071429 17.857143
30.714286 66.071429 17.857143
30.714286 59.642857 82.142857
30.714286 53.214286 17.857143
30.714286 46.785714 17.857143
30.714286 40.357143 17.857143
30.714286 33.928571 82.142857
30.714286 27.500000 17.857143
37.142857 27.500000 82.142857
43.571429 27.500000 17.857143
50.000000 27.500000 17.857143
56.428571 27.500000 17.857143
62.857143 27.500000 82.142857
69.285714 27.500000 17.857143
75.714286 27.500000 17.857143
75.714286 33.928571 17.857143
75.714286 40.357143 17.857143
75.714286 46.785714 17.857143
75.714286 53.214286 82.142857
75.714286 59.642857 17.857143
75.714286 66.071429 17.857143
75.714286 72.500000 17.857143
69.285714 72.500000 17.857143
62.857143 72.500000 17.857143
56.428571 72.500000 82.142857
50.000000 72.500000 17.857143
43.571429 72.500000 82.142857
37.142857 72.500000 17.857143
30.714286 72.500000 17.857143
24.285714 72.500000 17.857143
24.285714 66.071429 17.857143
24.285714 59.642857 17.857143
24.285714 53.214286 82.142857
24.285714 46.785714 17.857143
24.285714 40.357143 17.857143
24.285714 33.928571 17.857143
24.285714 27.500000 82.142857
24.285714 21.071429 17.857143
30.714286 21.071429 82.142857
37.142857 21.071429 17.857143
43.571429 21.071429 17.857143
50.000000 21.071429 17.857143
56.428571 21.071429 17.857143
62.857143 21.071429 17.857143
69.285714 21.071429 82.142857
75.714286 21.071429 17.857143
82.142857 21.071429 17.857143
82.142857 27.500000 17.857143
82.142857 33.928571 82.142857
82.142857 40.357143 17.857143
82.142857 46.785714 17.857143
82.142857 53.214286 17.857143
82.142857 59.642857 17.857143
82.142857 66.071429 17.857143
82.142857 72.500000 82.142857
82.142857 78.928571 17.857143
75.714286 78.928571 17.857143
69.285714 78.928571 17.857143
62.857143 78.928571 17.857143
56.428571 78.928571 17.857143
50.000000 78.928571 17.857143
43.571429 78.928571 17.857143
37.142857 78.928571 82.142857
30.714286 78.928571 17.857143
24.285714 78.928571 17.857143
17.857143 78.928571 17.857143
17.857143 72.500000 82.142857
17.857143 66.071429 17.857143
17.857143 59.642857 82.142857
17.857143 53.214286 17.857143
17.857143 46.785714 17.857143
17.857143 40.357143 17.857143
17.857143 33.928571 82.142857
17.857143 27.500000 17.857143
17.857143 21.071429 82.142857
17.857143 14.642857 17.857143
24.285714 14.642857 17.857143
30.714286 14.642857 17.857143
37.142857 14.642857 82.142857
43.571429 14.642857 17.857143
50.000000 14.642857 17.857143
56.428571 14.642857 17.857143
62.857143 14.642857 17.857143
69.285714 14.642857 17.857143
75.714286 14.642857 17.857143
82.142857 14.642857 17.857143
88.571429 14.642857 17.857143
88.571429 21.071429 17.857143
88.571429 27.500000 17.857143
88.571429 33.928571 17.857143
88.571429 40.357143 17.857143
88.571429 46.785714 17.857143
88.571429 53.214286 82.142857
88.571429 59.642857 17.857143
88.571429 66.071429 17.857143
88.571429 72.500000 17.857143
88.571429 78.928571 82.142857
88.571429 85.357143 17.857143
82.142857 85.357143 17.857143
75.714286 85.357143 17.857143
69.285714 85.357143 17.857143
62.857143 85.357143 17.857143
56.428571 85.357143 82.142857
50.000000 85.357143 17.857143
43.571429 85.357143 82.142857
37.142857 85.357143 17.857143
30.714286 85.357143 17.857143
24.285714 85.357143 17.857143
17.857143 85.357143 17.857143
11.428571 85.357143 17.857143
11.428571 78.928571 17.857143
11.428571 72.500000 17.857143
11.428571 66.071429 17.857143
11.428571 59.642857 17.857143
11.428571 53.214286 82.142857
11.428571 46.785714 17.857143
11.428571 40.357143 82.142857
11.428571 33.928571 17.857143
11.428571 27.500000 17.857143
11.428571 21.071429 17.857143
11.428571 14.642857 17.857143
11.428571 8.214286 17.857143
17.857143 8.214286 82.142857
24.285714 8.214286 17.857143
30.714286 8.214286 17.857143
37.142857 8.214286 17.857143
43.571429 8.214286 17.857143
50.000000 8.214286 17.857143
56.428571 8.214286 82.142857
62.857143 8.214286 17.857143
69.285714 8.214286 17.857143
75.714286 8.214286 17.857143
82.142857 8.214286 82.142857
88.571429 8.214286 17.857143
95.000000 8.214286 17.857143
95.000000 14.642857 17.857143
95.000000 21.071429 17.857143
95.000000 27.500000 17.857143
95.000000 33.928571 82.142857
95.000000 40.357143 17.857143
95.000000 46.785714 17.857143
95.000000 53.214286 17.857143
95.000000 59.642857 17.857143
95.000000 66.071429 17.857143
95.000000 72.500000 82.142857
95.000000 78.928571 17.857143
95.000000 85.357143 82.142857
95.000000 91.785714 17.857143
88.571429 91.785714 17.857143
82.142857 91.785714 17.857143
75.714286 91.785714 17.857143
69.285714 91.785714 17.857143
62.857143 91.785714 17.857143
56.428571 91.785714 17.857143
50.000000 91.785714 17.857143
43.571429 91.785714 17.857143
37.142857 91.785714 82.142857
30.714286 91.785714 17.857143
24.285714 91.785714 82.142857
17.857143 91.785714 17.857143
11.428571 91.785714 17.857143
5.000000 91.785714 17.857143
5.000000 85.357143 82.142857
5.000000 78.928571 17.857143
5.000000 72.500000 82.142857
